<?xml version="1.0" encoding="UTF-8" standalone="no"?>
<svg
   xmlns:dc="http://purl.org/dc/elements/1.1/"
   xmlns:cc="http://creativecommons.org/ns#"
   xmlns:rdf="http://www.w3.org/1999/02/22-rdf-syntax-ns#"
   xmlns:svg="http://www.w3.org/2000/svg"
   xmlns="http://www.w3.org/2000/svg"
   xmlns:sodipodi="http://sodipodi.sourceforge.net/DTD/sodipodi-0.dtd"
   xmlns:inkscape="http://www.inkscape.org/namespaces/inkscape"
   width="512"
   height="512"
   viewBox="0 0 135.46666 135.46666"
   version="1.1"
   id="svg8"
   inkscape:version="1.0.1 (3bc2e813f5, 2020-09-07)"
   sodipodi:docname="Options.svg"
   inkscape:export-filename="C:\Users\MikelSalazar\Projects\SHISHO\resources\icons\SHISHO.png"
   inkscape:export-xdpi="90"
   inkscape:export-ydpi="90">
  <title
     id="title835">Options Icon</title>
  <defs
     id="defs2" />
  <sodipodi:namedview
     id="base"
     pagecolor="#ffffff"
     bordercolor="#666666"
     borderopacity="1.0"
     inkscape:pageopacity="0.0"
     inkscape:pageshadow="2"
     inkscape:zoom="1"
     inkscape:cx="147.92024"
     inkscape:cy="172.17072"
     inkscape:document-units="px"
     inkscape:current-layer="layer1"
     inkscape:document-rotation="0"
     showgrid="true"
     borderlayer="true"
     inkscape:pagecheckerboard="true"
     units="px"
     inkscape:window-width="1920"
     inkscape:window-height="1057"
     inkscape:window-x="3832"
     inkscape:window-y="1083"
     inkscape:window-maximized="1"
     inkscape:snap-bbox="true"
     inkscape:bbox-paths="true"
     inkscape:bbox-nodes="true"
     inkscape:snap-bbox-edge-midpoints="true"
     inkscape:snap-bbox-midpoints="true"
     inkscape:snap-object-midpoints="true"
     inkscape:snap-center="true"
     inkscape:snap-text-baseline="true"
     inkscape:snap-page="true">
    <inkscape:grid
       type="xygrid"
       id="grid837"
       spacingx="4.2333331"
       spacingy="4.2333331"
       units="px"
       empspacing="4" />
  </sodipodi:namedview>
  <metadata
     id="metadata5">
    <rdf:RDF>
      <cc:Work
         rdf:about="">
        <dc:format>image/svg+xml</dc:format>
        <dc:type
           rdf:resource="http://purl.org/dc/dcmitype/StillImage" />
        <dc:title>Options Icon</dc:title>
        <dc:creator>
          <cc:Agent>
            <dc:title>Mikel Salazar</dc:title>
          </cc:Agent>
        </dc:creator>
      </cc:Work>
    </rdf:RDF>
  </metadata>
  <g
     inkscape:label="Layer 1"
     inkscape:groupmode="layer"
     id="layer1">
    <path
       d="M 71.984126,135.46666 H 63.48227 c -6.876256,0 -12.47087,-5.59435 -12.47087,-12.47061 v -2.87628 c -2.923382,-0.93398 -5.763684,-2.11296 -8.492331,-3.52504 l -2.03835,2.03835 c -4.93686,4.94294 -12.844991,4.79795 -17.638447,-0.002 L 16.83332,112.6224 c -4.801923,-4.79664 -4.940035,-12.70212 0.0016,-17.638451 l 2.036763,-2.036762 c -1.412081,-2.728648 -2.5908,-5.568421 -3.525044,-8.492331 h -2.87602 C 5.5946143,84.454996 0,78.860646 0,71.98439 V 63.48227 C 0,56.606014 5.5946143,51.011664 12.47087,51.011664 h 2.876021 c 0.934244,-2.923646 2.112962,-5.763683 3.525043,-8.492331 l -2.038349,-2.038085 c -4.938713,-4.933421 -4.802452,-12.839699 0.0016,-17.638447 l 6.009481,-6.009216 c 4.804569,-4.811184 12.710847,-4.931304 17.638182,0.0016 l 2.036498,2.036498 c 2.728648,-1.411817 5.56895,-2.5908 8.492331,-3.525044 v -2.87602 C 51.011664,5.5943497 56.606014,0 63.482534,0 h 8.501856 c 6.876256,0 12.470606,5.5943497 12.470606,12.470606 v 2.876285 c 2.923381,0.933979 5.763683,2.112962 8.492331,3.525043 l 2.038349,-2.038349 c 4.936861,-4.942946 12.844994,-4.797954 17.638444,0.0019 l 6.00896,6.008687 c 4.80192,4.796631 4.94003,12.702116 -0.002,17.638447 l -2.03676,2.036762 c 1.41208,2.728648 2.5908,5.568421 3.52504,8.492331 h 2.87602 c 6.87626,0 12.47087,5.59435 12.47087,12.470606 v 8.50212 c 0,6.876256 -5.59461,12.470606 -12.47087,12.470606 h -2.87602 c -0.93424,2.923645 -2.11296,5.763683 -3.52504,8.492331 l 2.03835,2.038349 c 4.93871,4.933421 4.80245,12.839706 -0.002,17.638446 l -6.00948,6.00922 c -4.80457,4.81118 -12.71085,4.9313 -17.638186,-0.002 l -2.036497,-2.0365 c -2.728648,1.41182 -5.56895,2.5908 -8.492331,3.52505 v 2.87628 c 0,6.87573 -5.59435,12.47008 -12.47087,12.47008 z m -28.138172,-27.2071 c 3.790685,2.24181 7.87056,3.93541 12.126118,5.03369 1.7526,0.45218 2.977092,2.0328 2.977092,3.84281 v 5.85999 c 0,2.49952 2.033852,4.53311 4.53337,4.53311 h 8.501856 c 2.499519,0 4.533371,-2.03359 4.533371,-4.53311 v -5.85999 c 0,-1.81001 1.224491,-3.39063 2.977091,-3.84281 4.255558,-1.09828 8.335433,-2.79188 12.126118,-5.03369 1.559719,-0.92234 3.545417,-0.67152 4.826794,0.60986 l 4.150786,4.15105 c 1.78964,1.79176 4.66354,1.75022 6.40926,0.002 l 6.01319,-6.01292 c 1.74149,-1.73937 1.79969,-4.6138 0.002,-6.40953 l -4.15264,-4.152635 c -1.28111,-1.281113 -1.53194,-3.267075 -0.60986,-4.826529 2.24181,-3.790421 3.93514,-7.870296 5.03343,-12.126118 0.45244,-1.7526 2.03306,-2.976827 3.84281,-2.976827 h 5.85972 c 2.49952,0 4.53337,-2.033588 4.53337,-4.533106 v -8.502121 c 0,-2.499518 -2.03385,-4.533106 -4.53337,-4.533106 h -5.85972 c -1.81002,0 -3.39037,-1.224491 -3.84281,-2.976827 -1.09829,-4.255822 -2.79188,-8.335697 -5.03343,-12.126118 -0.92208,-1.559454 -0.67125,-3.545416 0.60986,-4.826529 l 4.15105,-4.151047 c 1.7944,-1.792288 1.74757,-4.665663 0.002,-6.409531 l -6.01266,-6.012656 c -1.74281,-1.745192 -4.61724,-1.796256 -6.40953,-0.0016 l -4.152372,4.152635 c -1.281112,1.281377 -3.267604,1.532202 -4.826793,0.609865 -3.790685,-2.241815 -7.87056,-3.935412 -12.126118,-5.033698 -1.7526,-0.452173 -2.977092,-2.032793 -2.977092,-3.842808 v -5.86052 c 0,-2.499519 -2.033852,-4.5331064 -4.53337,-4.5331064 h -8.501856 c -2.499519,0 -4.533371,2.0335874 -4.533371,4.5331064 v 5.859991 c 0,1.810014 -1.224491,3.390635 -2.977091,3.842808 -4.255558,1.098285 -8.335433,2.791883 -12.126118,5.033698 -1.559984,0.922073 -3.545681,0.671248 -4.826794,-0.609865 l -4.150783,-4.151047 c -1.789642,-1.791759 -4.66381,-1.750219 -6.409266,-0.0019 l -6.013185,6.012921 c -1.741488,1.739371 -1.799696,4.613539 -0.0016,6.409531 l 4.152635,4.152635 c 1.281113,1.281113 1.531938,3.267075 0.609865,4.826529 -2.241815,3.790421 -3.935148,7.870295 -5.033433,12.126118 -0.452438,1.7526 -2.033059,2.976827 -3.842808,2.976827 h -5.8608 c -2.4995184,2.65e-4 -4.5333704,2.033852 -4.5333704,4.533371 v 8.50212 c 0,2.499519 2.033852,4.533106 4.5333704,4.533106 h 5.859727 c 1.810014,0 3.390371,1.224492 3.842808,2.976827 1.098285,4.255823 2.791883,8.335698 5.033433,12.126118 0.922073,1.559454 0.671248,3.545417 -0.609864,4.826529 l -4.151048,4.151049 c -1.794404,1.79229 -1.747573,4.66566 -0.0016,6.40953 l 6.012656,6.01265 c 1.742811,1.7452 4.617244,1.79626 6.409531,0.002 l 4.152371,-4.15263 c 0.944033,-0.94377 2.908035,-1.74467 4.827058,-0.6096 z"
       id="path850"
       style="stroke-width:0.264583" />
    <path
       d="m 67.73333,97.207912 c -16.25256,0 -29.474582,-13.222287 -29.474582,-29.474582 0,-16.252295 13.222022,-29.474582 29.474582,-29.474582 16.25256,0 29.474582,13.222287 29.474582,29.474582 0,16.252295 -13.222022,29.474582 -29.474582,29.474582 z m 0,-51.011664 c -11.875822,0 -21.537082,9.661524 -21.537082,21.537082 0,11.875558 9.661524,21.537082 21.537082,21.537082 11.875558,0 21.537082,-9.661524 21.537082,-21.537082 0,-11.875558 -9.66126,-21.537082 -21.537082,-21.537082 z"
       id="path852"
       style="stroke-width:0.264583" />
  </g>
</svg>
