<?xml version="1.0" encoding="UTF-8" standalone="no"?>
<svg
   xmlns:dc="http://purl.org/dc/elements/1.1/"
   xmlns:cc="http://creativecommons.org/ns#"
   xmlns:rdf="http://www.w3.org/1999/02/22-rdf-syntax-ns#"
   xmlns:svg="http://www.w3.org/2000/svg"
   xmlns="http://www.w3.org/2000/svg"
   xmlns:sodipodi="http://sodipodi.sourceforge.net/DTD/sodipodi-0.dtd"
   xmlns:inkscape="http://www.inkscape.org/namespaces/inkscape"
   width="512"
   height="512"
   viewBox="0 0 135.46666 135.46666"
   version="1.1"
   id="svg8"
   inkscape:version="1.0.2-2 (e86c870879, 2021-01-15)"
   sodipodi:docname="SHISHO.svg"
   inkscape:export-filename="C:\Users\MikelSalazar\Projects\SHISHO\resources\icons\SHISHO.png"
   inkscape:export-xdpi="90"
   inkscape:export-ydpi="90">
  <title
     id="title835">SHISHO Icon</title>
  <defs
     id="defs2" />
  <sodipodi:namedview
     id="base"
     pagecolor="#ffffff"
     bordercolor="#666666"
     borderopacity="1.0"
     inkscape:pageopacity="0.0"
     inkscape:pageshadow="2"
     inkscape:zoom="1.5668874"
     inkscape:cx="235.76029"
     inkscape:cy="167.33602"
     inkscape:document-units="px"
     inkscape:current-layer="layer1"
     inkscape:document-rotation="0"
     showgrid="true"
     borderlayer="true"
     inkscape:pagecheckerboard="true"
     units="px"
     inkscape:window-width="1920"
     inkscape:window-height="1057"
     inkscape:window-x="1912"
     inkscape:window-y="-8"
     inkscape:window-maximized="1"
     inkscape:snap-bbox="true"
     inkscape:bbox-paths="true"
     inkscape:bbox-nodes="true"
     inkscape:snap-bbox-edge-midpoints="true"
     inkscape:snap-bbox-midpoints="true"
     inkscape:snap-object-midpoints="true"
     inkscape:snap-center="true"
     inkscape:snap-text-baseline="true"
     inkscape:snap-page="true">
    <inkscape:grid
       type="xygrid"
       id="grid837"
       spacingx="4.2333331"
       spacingy="4.2333331"
       units="px"
       empspacing="4" />
  </sodipodi:namedview>
  <metadata
     id="metadata5">
    <rdf:RDF>
      <cc:Work
         rdf:about="">
        <dc:format>image/svg+xml</dc:format>
        <dc:type
           rdf:resource="http://purl.org/dc/dcmitype/StillImage" />
        <dc:title>SHISHO Icon</dc:title>
        <dc:creator>
          <cc:Agent>
            <dc:title>Mikel Salazar</dc:title>
          </cc:Agent>
        </dc:creator>
      </cc:Work>
    </rdf:RDF>
  </metadata>
  <g
     inkscape:label="Layer 1"
     inkscape:groupmode="layer"
     id="layer1">
    <path
       style="fill:#ffffff;stroke:#000000;stroke-width:2.11667;stroke-miterlimit:4;stroke-dasharray:none;stroke-opacity:1"
       d="M 83.279428,81.441042 C 82.731869,81.401421 82.189973,81.345429 82.075216,81.316628 81.960457,81.287827 81.516936,81.226072 81.089611,81.179388 79.416027,80.996598 77.68648,80.750625 75.557858,80.392629 74.976715,80.294898 74.223871,80.171615 73.884869,80.11866 73.545871,80.065705 72.95152,79.968178 72.56409,79.90192 70.843796,79.607723 69.485684,79.424354 66.70864,79.111349 63.606273,78.761645 60.137789,78.762776 57.771376,79.114219 55.832452,79.402182 54.717145,79.584336 54.029172,79.725401 53.364975,79.861593 52.577273,80.003988 50.90333,80.290463 50.612758,80.340199 50.058032,80.437649 49.670603,80.507035 49.283175,80.57643 48.609577,80.675695 48.173721,80.72764 47.737864,80.779585 47.048061,80.862161 46.640826,80.911137 45.547257,81.042674 42.088585,81.02092 40.997494,80.875631 39.985744,80.740929 39.761258,80.696599 39.104378,80.501811 37.810633,80.118174 36.377377,79.267859 35.286789,78.236928 34.341799,77.343633 32.365292,74.726371 31.821231,73.647875 31.712487,73.432306 31.295079,72.270853 31.267453,72.10697 31.263374,72.082755 31.202335,71.845014 31.13182,71.578657 30.959724,70.928631 30.950969,67.50766 31.119763,66.867894 31.183649,66.625758 31.295947,66.189896 31.369319,65.899331 32.024189,63.305807 33.533851,61.301204 36.154641,59.545172 36.980404,58.99187 38.160514,58.413259 38.895027,58.201546 39.278716,58.090952 39.445891,58.001498 39.422826,57.919132 39.228238,57.224296 38.973989,55.410985 38.973031,54.711171 38.972115,54.043129 39.186073,52.422089 39.367429,51.723019 39.689697,50.480769 40.429936,48.803953 41.136205,47.716327 42.70642,45.298255 45.087247,43.175152 47.314286,42.207022 47.671261,42.051836 47.981463,41.906744 48.003627,41.884578 48.02579,41.862412 47.944521,41.619517 47.823031,41.344805 47.491534,40.595232 47.259559,39.86177 47.114914,39.105869 46.943682,38.211036 46.945157,36.170261 47.117684,35.268644 47.596337,32.767259 49.024061,30.325671 50.976746,28.669163 52.280493,27.563165 53.867953,26.698018 55.370493,26.274629 L 55.875327,26.132377 55.666665,25.719953 C 55.5519,25.49312 55.378494,25.030167 55.281315,24.691168 54.617221,22.37448 54.885984,20.560863 56.30563,17.779114 56.664,17.076903 57.187965,16.048654 57.470001,15.494118 58.118668,14.218713 58.265507,13.768383 58.318391,12.892247 58.354593,12.292501 58.326105,12.083165 58.126665,11.483419 57.482445,9.5461414 57.489251,8.9468198 58.162673,8.3135636 58.438014,8.0546466 58.461363,8.0495326 59.340207,8.0556336 60.090735,8.0608426 60.34443,8.1014246 60.897216,8.3047026 61.704732,8.6016502 66.408325,10.944522 67.457082,11.572188 71.044963,13.719488 74.090949,16.167986 76.164471,18.571579 78.60523,21.400864 79.822449,23.757105 80.23172,26.444773 80.413,27.635232 80.394091,28.369879 80.144285,29.84219 L 80.106936,30.062319 81.272368,30.078793 C 85.008443,30.131632 87.8741,32.188929 89.160261,35.741645 89.933834,37.878462 89.844552,40.231484 88.919697,42.081363 88.738108,42.44458 88.576813,42.770007 88.561263,42.804543 88.545719,42.839079 88.644776,42.892957 88.781394,42.924266 89.965865,43.195746 91.56045,43.965959 92.63992,44.788011 94.27529,46.033403 95.567174,47.61398 96.433831,49.429756 97.098302,50.821919 97.339946,51.604592 97.576821,53.131845 97.848095,54.880858 97.612992,57.058403 96.996905,58.502994 96.644314,59.329764 96.559163,59.544868 96.579166,59.558277 96.591865,59.566785 96.879608,59.645409 97.218607,59.732996 97.958507,59.924151 99.210909,60.530961 99.842223,61.004165 101.57186,62.300628 102.9907,64.442674 103.8504,67.055338 104.39078,68.69758 104.51173,69.464348 104.4591,70.914319 104.41311,72.181432 104.33977,72.504984 103.84947,73.603848 103.02028,75.462232 101.06805,77.375745 98.47118,78.875489 97.693937,79.32436 96.574624,79.872239 96.198967,79.9877 96.081773,80.023715 95.946258,80.082523 95.897828,80.118394 95.757711,80.222162 94.290985,80.707845 93.520442,80.905617 91.608502,81.396341 90.990018,81.456237 87.532913,81.485516 85.741053,81.500686 83.82699,81.480663 83.279428,81.441042 Z M 70.93658,72.022095 C 73.012089,71.585499 74.149714,71.147938 75.998115,70.075324 77.502632,69.202255 79.212147,67.536315 80.192987,65.987381 81.008426,64.699638 81.742179,62.940221 81.900528,61.89298 L 81.960438,61.496746 81.671641,61.89298 C 81.186492,62.55861 79.921448,63.737753 79.160038,64.234035 78.255865,64.823369 77.044712,65.420206 76.055605,65.763846 75.233129,66.049599 73.678061,66.455837 73.153004,66.522107 72.974385,66.544653 72.766453,66.582421 72.690926,66.606044 72.207734,66.757161 70.107804,66.908674 68.475642,66.910177 65.858829,66.912597 64.405193,66.744959 61.865787,66.147924 58.882967,65.446637 56.010361,63.949587 54.216972,62.161759 53.913369,61.859106 53.640256,61.636184 53.610051,61.666388 53.579846,61.696589 53.606084,61.868895 53.668356,62.049282 54.490062,64.429607 55.688255,66.314386 57.431357,67.968541 58.094051,68.597419 59.511386,69.729575 59.635984,69.729575 59.668249,69.729575 59.757204,69.783932 59.833661,69.85037 60.050473,70.038769 61.437761,70.764552 62.148363,71.061354 63.178528,71.491619 63.849509,71.691393 65.387862,72.025855 66.750415,72.3221 69.519333,72.320226 70.93658,72.022095 Z M 57.583734,56.566734 C 59.023586,56.261682 59.87955,55.791482 60.941308,54.722349 62.10906,53.546482 62.764589,52.329297 63.196816,50.53432 63.353122,49.885197 63.352507,47.393366 63.195881,46.748106 63.04376,46.121414 62.763478,45.23987 62.668422,45.089154 62.611633,44.999116 62.412673,45.105173 61.8297,45.536248 61.409347,45.847066 60.595904,46.346627 60.022042,46.64639 L 58.978662,47.191405 59.254405,47.696179 C 59.515992,48.175039 59.53016,48.250673 59.530388,49.169523 59.530619,50.083487 59.515104,50.16787 59.255171,50.666399 58.989362,51.176197 58.244314,51.977751 57.830334,52.199314 57.439967,52.408233 56.796212,52.557614 56.282231,52.558554 54.401133,52.562 52.870338,50.942167 52.986976,49.071616 L 53.016574,48.596946 51.783847,48.596095 C 51.105848,48.595633 50.39625,48.569665 50.206961,48.5384 L 49.862801,48.481561 49.92375,49.348613 C 50.015481,50.653612 50.338647,51.808906 50.902249,52.846691 51.984037,54.838634 53.548417,56.091395 55.482027,56.514184 55.772599,56.577722 56.049961,56.641929 56.098389,56.656871 56.323225,56.72623 57.034709,56.683059 57.583734,56.566734 Z M 79.969781,56.525574 C 80.362342,56.431453 80.857633,56.286489 81.070429,56.203417 81.568998,56.008802 82.527946,55.39533 82.999405,54.969402 83.981981,54.081701 84.998809,52.304149 85.334961,50.886527 85.464597,50.339827 85.686272,48.608548 85.631521,48.570401 85.611856,48.556704 84.887921,48.561128 84.022773,48.580244 L 82.449775,48.614991 82.498885,48.917622 C 82.56878,49.348325 82.395234,50.241153 82.14458,50.74038 81.348226,52.326489 79.464213,52.989666 77.833549,52.257866 76.157343,51.505638 75.400791,49.342299 76.234606,47.685745 76.377234,47.402382 76.481431,47.159874 76.466153,47.146845 76.450874,47.133809 76.256536,47.043809 76.034293,46.946842 75.453227,46.693316 74.060967,45.855808 73.444611,45.389022 73.154039,45.16897 72.892157,44.988499 72.862647,44.98799 72.787189,44.986694 72.436627,46.064865 72.290374,46.748068 72.124812,47.521453 72.129341,49.690893 72.298188,50.490299 72.713583,52.456982 73.641906,54.055917 75.049237,55.228663 75.660245,55.737823 76.942855,56.369743 77.671098,56.520406 77.961673,56.580522 78.239035,56.641929 78.287464,56.656871 78.549826,56.73781 79.34267,56.675933 79.969781,56.525574 Z"
       id="path867" />
    <circle
       style="fill:#000000"
       id="path849"
       cx="67.73333"
       cy="67.73333"
       r="42.068748" />
    <path
       id="path839"
       style="fill:#ffffff;stroke:#000000;stroke-width:2.11666;stroke-miterlimit:4;stroke-dasharray:none;stroke-opacity:1"
       d="M 61.18283,50.016262 C 62.273704,54.087456 55.835047,59.35 46.801688,61.770481 37.768328,64.190962 6.0540453,72.750504 6.0540453,72.750504 6.0540453,72.750504 33.817928,49.447862 42.851286,47.027381 51.884645,44.6069 60.091956,45.945067 61.18283,50.016262 Z"
       sodipodi:nodetypes="sscss" />
    <path
       id="path842"
       style="fill:#ffffff;stroke:#000000;stroke-width:2.11666;stroke-miterlimit:4;stroke-dasharray:none;stroke-opacity:1"
       d="M 72.080622,49.955236 C 71.357782,54.107601 78.240789,58.773954 87.454251,60.377827 96.667725,61.981702 129.0095,67.73333 129.0095,67.73333 129.0095,67.73333 99.285363,46.944659 90.071888,45.340785 80.858427,43.736912 72.803463,45.802873 72.080622,49.955236 Z"
       sodipodi:nodetypes="ssccs" />
    <path
       id="path844"
       style="fill:#ffffff;stroke:#000000;stroke-width:2.11667;stroke-miterlimit:4;stroke-dasharray:none;stroke-opacity:1"
       d="M 88.305783,84.981612 C 88.305786,96.268466 67.255725,128.91906 67.255725,128.91906 67.255725,128.91906 47.160875,96.268466 47.160877,84.981612 47.160877,73.694759 56.371479,64.544958 67.733331,64.544958 79.095183,64.544958 88.305783,73.694759 88.305783,84.981612 Z"
       sodipodi:nodetypes="scsss" />
  </g>
</svg>
