<?xml version="1.0" encoding="UTF-8" standalone="no"?>
<svg
   xmlns:dc="http://purl.org/dc/elements/1.1/"
   xmlns:cc="http://creativecommons.org/ns#"
   xmlns:rdf="http://www.w3.org/1999/02/22-rdf-syntax-ns#"
   xmlns:svg="http://www.w3.org/2000/svg"
   xmlns="http://www.w3.org/2000/svg"
   xmlns:sodipodi="http://sodipodi.sourceforge.net/DTD/sodipodi-0.dtd"
   xmlns:inkscape="http://www.inkscape.org/namespaces/inkscape"
   width="512"
   height="512"
   version="1.1"
   viewBox="0 0 512 512"
   id="svg848"
   sodipodi:docname="Options.svg"
   inkscape:version="1.0.1 (3bc2e813f5, 2020-09-07)">
  <metadata
     id="metadata854">
    <rdf:RDF>
      <cc:Work
         rdf:about="">
        <dc:format>image/svg+xml</dc:format>
        <dc:type
           rdf:resource="http://purl.org/dc/dcmitype/StillImage" />
        <dc:title>Options Icon</dc:title>
      </cc:Work>
    </rdf:RDF>
  </metadata>
  <defs
     id="defs852" />
  <sodipodi:namedview
     pagecolor="#ffffff"
     bordercolor="#666666"
     borderopacity="1"
     objecttolerance="10"
     gridtolerance="10"
     guidetolerance="10"
     inkscape:pageopacity="0"
     inkscape:pageshadow="2"
     inkscape:window-width="2560"
     inkscape:window-height="1417"
     id="namedview850"
     showgrid="false"
     inkscape:zoom="1.7382812"
     inkscape:cx="256"
     inkscape:cy="256"
     inkscape:window-x="-8"
     inkscape:window-y="-8"
     inkscape:window-maximized="1"
     inkscape:current-layer="svg848" />
  <title
     id="title840">Options Icon</title>
  <path
     d="m 272.067,511.99962 h -32.13325 c -25.98923,0 -47.13461,-21.14423 -47.13461,-47.13458 v -10.87108 c -11.0491,-3.53001 -21.78413,-7.98615 -32.09697,-13.32286 l -7.70421,7.70421 c -18.6592,18.68186 -48.54817,18.13421 -66.66349,-0.008 L 63.623228,425.65766 C 45.474265,407.52874 44.952311,377.65 63.629275,358.99422 l 7.698162,-7.69816 C 65.990352,340.98322 61.535411,330.2501 58.004567,319.19912 H 47.134616 C 21.146514,319.19965 0,298.05564 0,272.06832 v -32.13399 c 0,-25.98922 21.145002,-47.13458 47.134616,-47.13458 h 10.869951 c 3.530995,-11.04985 7.986163,-21.78411 13.32287,-32.09695 l -7.703832,-7.70307 c -18.666003,-18.64595 -18.15123,-48.52923 0.006,-66.663434 l 22.71318,-22.711982 c 18.159165,-18.184099 48.041705,-18.638021 66.663485,0.006 l 7.69703,7.697024 c 10.31285,-5.335948 21.04825,-9.79202 32.09697,-13.322861 V 47.134581 C 192.80022,21.145364 213.94414,0 239.93489,0 h 32.13325 c 25.98923,0 47.13461,21.143853 47.13461,47.134581 v 10.871077 c 11.04911,3.53001 21.78413,7.986157 32.09697,13.32286 l 7.70384,-7.703826 c 18.6592,-18.681863 48.54816,-18.134209 66.66348,0.0072 l 22.71125,22.710092 c 18.14896,18.128916 18.67091,48.007656 -0.008,66.663436 l -7.69817,7.69816 c 5.33709,10.31284 9.79203,21.04596 13.32287,32.09695 h 10.86996 c 25.98923,0 47.13461,21.14423 47.13461,47.13458 v 32.13398 c 0,25.98922 -21.145,47.13458 -47.13461,47.13458 h -10.86996 c -3.53099,11.04985 -7.98616,21.78411 -13.32287,32.09695 l 7.70421,7.70382 c 18.66601,18.64596 18.15086,48.52923 -0.008,66.66344 l -22.71313,22.71198 c -18.15916,18.1841 -48.0417,18.63802 -66.66349,-0.008 l -7.69702,-7.69702 c -10.31285,5.33595 -21.04825,9.79202 -32.09697,13.32286 v 10.8715 C 319.1986,490.85615 298.05435,512 272.06398,512 Z M 165.71837,409.16981 c 14.32709,8.47296 29.74723,14.87399 45.83068,19.02505 6.62401,1.70903 11.25206,7.68304 11.25206,14.524 v 22.14807 c 0,9.44695 7.6872,17.13301 17.13415,17.13301 h 32.13326 c 9.44695,0 17.13415,-7.68606 17.13415,-17.13301 v -22.14807 c 0,-6.84096 4.62805,-12.8149 11.25207,-14.524 16.0842,-4.15106 31.50395,-10.55209 45.83067,-19.02505 5.89495,-3.48601 13.39997,-2.53803 18.24307,2.30499 l 15.68811,15.68885 c 6.76386,6.77217 17.62587,6.61494 24.22419,0.008 l 22.72712,-22.72597 c 6.58206,-6.57412 6.80203,-17.43802 0.008,-24.22493 l -15.69491,-15.69489 c -4.84197,-4.84197 -5.78988,-12.34812 -2.30499,-18.24193 8.47297,-14.32595 14.87286,-29.74607 19.02392,-45.83064 1.71002,-6.62401 7.68418,-11.25092 14.52401,-11.25092 h 22.14696 c 9.44695,0 17.13416,-7.68606 17.13416,-17.13301 v -32.13398 c 0,-9.44695 -7.68683,-17.13301 -17.13416,-17.13301 h -22.14696 c -6.84096,0 -12.81414,-4.62805 -14.52401,-11.25092 -4.15106,-16.08495 -10.55209,-31.50507 -19.02392,-45.83065 -3.48504,-5.89418 -2.53702,-13.39996 2.30499,-18.24192 l 15.68886,-15.68885 c 6.782,-6.77406 6.60512,-17.63418 0.008,-24.22493 L 404.45174,84.839449 c -6.58698,-6.596045 -17.45088,-6.789179 -24.22495,-0.006 L 364.53264,100.5283 c -4.84196,4.84309 -12.35002,5.791 -18.24307,2.30499 -14.3271,-8.472966 -29.74723,-14.873986 -45.83068,-19.025049 -6.62402,-1.708993 -11.25206,-7.683039 -11.25206,-14.523998 V 47.134279 c 0,-9.446948 -7.6872,-17.13301 -17.13416,-17.13301 h -32.13325 c -9.44695,0 -17.13415,7.686062 -17.13415,17.13301 v 22.148075 c 0,6.840958 -4.62805,12.814891 -11.25207,14.523997 -16.0842,4.151063 -31.50396,10.552084 -45.83067,19.025049 -5.89608,3.48499 -13.40111,2.53701 -18.24308,-2.30499 l -15.6881,-15.688851 c -6.76386,-6.772171 -17.62701,-6.614942 -24.22419,-0.0072 L 84.840041,107.55634 c -6.582065,6.57413 -6.802034,17.43689 -0.006,24.22493 l 15.694909,15.6949 c 4.84197,4.84196 5.78988,12.34812 2.30499,18.24193 -8.47297,14.32595 -14.872861,29.74607 -19.023927,45.83064 -1.710014,6.62401 -7.684179,11.25092 -14.524008,11.25092 H 47.134843 c -9.446955,0.001 -17.134157,7.68719 -17.134157,17.13414 v 32.13399 c 0,9.44694 7.687202,17.13301 17.134157,17.13301 H 69.2818 c 6.840964,0 12.814145,4.62804 14.524008,11.25092 4.151067,16.08494 10.552092,31.50507 19.023922,45.83064 3.485,5.89418 2.53702,13.39996 -2.30499,18.24192 l -15.688857,15.68885 c -6.782002,6.77406 -6.60512,17.63418 -0.006,24.22493 l 22.725227,22.72483 c 6.58698,6.59605 17.45089,6.78918 24.22495,0.008 L 147.47421,411.476 c 3.568,-3.56702 10.9909,-6.59416 18.24421,-2.30401 z"
     style="stroke-width:0.99999"
     id="path842" />
  <path
     d="m 256.00019,367.38705 c -61.42883,0 -111.40188,-49.97301 -111.40188,-111.40179 0,-61.42878 49.97305,-111.40179 111.40188,-111.40179 61.42883,0 111.40188,49.97301 111.40188,111.40179 0,61.42878 -49.97305,111.40179 -111.40188,111.40179 z m 0,-192.80164 c -44.88579,0 -81.39991,36.51598 -81.39991,81.39985 0,44.88387 36.51601,81.39985 81.39991,81.39985 44.8839,0 81.39991,-36.51598 81.39991,-81.39985 0,-44.88387 -36.51525,-81.39985 -81.39991,-81.39985 z"
     style="stroke-width:0.99999"
     id="path844" />
</svg>
