<?xml version="1.0" encoding="UTF-8" standalone="no"?>
<svg
   xmlns:dc="http://purl.org/dc/elements/1.1/"
   xmlns:cc="http://creativecommons.org/ns#"
   xmlns:rdf="http://www.w3.org/1999/02/22-rdf-syntax-ns#"
   xmlns:svg="http://www.w3.org/2000/svg"
   xmlns="http://www.w3.org/2000/svg"
   xmlns:sodipodi="http://sodipodi.sourceforge.net/DTD/sodipodi-0.dtd"
   xmlns:inkscape="http://www.inkscape.org/namespaces/inkscape"
   width="512"
   height="512"
   viewBox="0 0 135.46666 135.46666"
   version="1.1"
   id="svg8"
   inkscape:version="1.0.2-2 (e86c870879, 2021-01-15)"
   sodipodi:docname="SHISHO.svg">
  <title
     id="title835">SHISHO Icon</title>
  <defs
     id="defs2" />
  <sodipodi:namedview
     id="base"
     pagecolor="#ffffff"
     bordercolor="#666666"
     borderopacity="1.0"
     inkscape:pageopacity="0.0"
     inkscape:pageshadow="2"
     inkscape:zoom="1.1079567"
     inkscape:cx="177.65334"
     inkscape:cy="313.92153"
     inkscape:document-units="px"
     inkscape:current-layer="layer1"
     inkscape:document-rotation="0"
     showgrid="true"
     borderlayer="true"
     inkscape:pagecheckerboard="true"
     units="px"
     inkscape:window-width="1920"
     inkscape:window-height="1057"
     inkscape:window-x="1912"
     inkscape:window-y="-8"
     inkscape:window-maximized="1"
     inkscape:snap-bbox="true"
     inkscape:bbox-paths="true"
     inkscape:bbox-nodes="true"
     inkscape:snap-bbox-edge-midpoints="true"
     inkscape:snap-bbox-midpoints="true"
     inkscape:snap-object-midpoints="true"
     inkscape:snap-center="true"
     inkscape:snap-text-baseline="true"
     inkscape:snap-page="true">
    <inkscape:grid
       type="xygrid"
       id="grid837"
       spacingx="4.2333331"
       spacingy="4.2333331"
       units="px"
       empspacing="4" />
  </sodipodi:namedview>
  <metadata
     id="metadata5">
    <rdf:RDF>
      <cc:Work
         rdf:about="">
        <dc:format>image/svg+xml</dc:format>
        <dc:type
           rdf:resource="http://purl.org/dc/dcmitype/StillImage" />
        <dc:title>SHISHO Icon</dc:title>
        <dc:creator>
          <cc:Agent>
            <dc:title>Mikel Salazar</dc:title>
          </cc:Agent>
        </dc:creator>
      </cc:Work>
    </rdf:RDF>
  </metadata>
  <g
     inkscape:label="Layer 1"
     inkscape:groupmode="layer"
     id="layer1">
    <path
       style="fill:#000000;stroke-width:2.11666656;stroke:#000000;stroke-opacity:1;stroke-miterlimit:4;stroke-dasharray:none"
       d="M 88.844734,104.17682 C 88.123615,104.12464 87.409955,104.0509 87.258824,104.01297 87.107691,103.97504 86.523587,103.89371 85.960814,103.83223 83.756759,103.5915 81.479001,103.26756 78.675673,102.79609 77.910327,102.66738 76.918855,102.50502 76.472401,102.43528 76.025951,102.36554 75.243211,102.2371 74.732978,102.14984 72.467406,101.76239 70.678816,101.5209 67.021538,101.10868 62.93582,100.64813 58.367938,100.64962 55.251449,101.11246 52.697949,101.4917 51.229125,101.73159 50.323087,101.91737 49.44836,102.09673 48.410982,102.28426 46.206452,102.66154 45.823779,102.72704 45.093222,102.85538 44.582991,102.94676 44.072761,103.03815 43.185654,103.16888 42.611646,103.23729 42.037636,103.3057 41.129188,103.41445 40.592872,103.47895 39.152677,103.65218 34.597717,103.62353 33.160785,103.43219 31.828344,103.25479 31.532702,103.19641 30.667613,102.93988 28.963792,102.43464 27.076239,101.3148 25.639971,99.957093 24.395449,98.780649 21.792454,95.33379 21.075942,93.913441 20.93273,93.629542 20.383017,92.099942 20.346635,91.884113 20.341262,91.852222 20.260877,91.539124 20.16801,91.188339 19.941366,90.332274 19.929836,85.826953 20.152131,84.984398 20.236268,84.665513 20.38416,84.091495 20.480788,83.708829 21.343231,80.29323 23.331407,77.653226 26.782903,75.340582 27.870407,74.611898 29.424573,73.849885 30.391904,73.571065 30.897211,73.425415 31.117375,73.307607 31.086998,73.199133 30.830732,72.284054 30.495895,69.895976 30.494633,68.97434 30.493427,68.094548 30.775202,65.959685 31.014043,65.039029 31.438459,63.403021 32.413329,61.194702 33.343464,59.762329 35.411386,56.577798 38.546858,53.781731 41.479798,52.506731 41.949922,52.302356 42.358449,52.111273 42.387637,52.082081 42.416825,52.052889 42.309797,51.733005 42.149798,51.371216 41.713227,50.38405 41.407724,49.418101 41.21723,48.422601 40.991724,47.244132 40.993666,44.556488 41.220879,43.369085 41.851249,40.074832 43.731516,36.85933 46.303139,34.677756 48.020133,33.221188 50.110766,32.081815 52.089564,31.524223 L 52.754413,31.336881 52.479611,30.79373 C 52.32847,30.494998 52.1001,29.885302 51.972118,29.43885 51.097527,26.387837 51.451481,23.999356 53.321109,20.335871 53.79307,19.411079 54.483115,18.056905 54.854548,17.326596 55.708821,15.646925 55.902203,15.053853 55.97185,13.900007 56.019526,13.110157 55.982009,12.834469 55.719353,12.044621 54.870936,9.4932784 54.879899,8.7039872 55.766774,7.870005 56.12939,7.52902 56.16014,7.522284 57.317548,7.530318 58.30597,7.537179 58.640079,7.590625 59.36808,7.858336 60.431552,8.2494086 66.626034,11.334908 68.007212,12.161527 72.732337,14.98946 76.743801,18.214061 79.474564,21.379526 82.688964,25.105614 84.292003,28.208715 84.830999,31.748298 85.069739,33.316099 85.044837,34.283607 84.71585,36.2226 L 84.666662,36.512503 86.2015,36.534199 C 91.12179,36.603786 94.895768,39.313188 96.589601,43.992014 97.608372,46.806141 97.49079,49.905004 96.272786,52.341242 96.033639,52.819589 95.821218,53.248167 95.800741,53.293649 95.780269,53.339132 95.910724,53.410088 96.090646,53.451322 97.650556,53.808853 99.750572,54.823202 101.1722,55.90582 103.32593,57.545966 105.0273,59.627541 106.16866,62.018867 107.04375,63.852306 107.36199,64.883064 107.67395,66.894413 108.0312,69.197813 107.72158,72.065577 106.91021,73.968062 106.44586,75.056896 106.33372,75.340182 106.36006,75.357841 106.37678,75.369045 106.75573,75.472591 107.20219,75.58794 108.17661,75.839687 109.82598,76.638838 110.65741,77.262035 112.93529,78.96944 114.80385,81.790453 115.93605,85.231257 116.64771,87.394043 116.80699,88.403854 116.73768,90.313425 116.67711,91.982177 116.58053,92.408286 115.93482,93.855458 114.84281,96.302897 112.27177,98.822939 108.85179,100.79806 107.82818,101.38921 106.35408,102.11075 105.85935,102.26281 105.70501,102.31024 105.52654,102.38769 105.46276,102.43493 105.27823,102.57159 103.3466,103.21122 102.33182,103.47168 99.813856,104.11795 98.999332,104.19683 94.446435,104.23539 92.086614,104.25537 89.565854,104.229 88.844734,104.17682 Z M 72.589599,91.772335 C 75.322978,91.197349 76.821193,90.621095 79.255478,89.208492 81.236878,88.058686 83.488255,85.864689 84.779989,83.824788 85.853896,82.128867 86.820225,79.811765 87.028766,78.432579 L 87.107666,77.910749 86.72733,78.432579 C 86.088403,79.309193 84.422382,80.862092 83.419629,81.515681 82.228863,82.291817 80.633813,83.077835 79.33119,83.530398 78.248016,83.906728 76.200041,84.44173 75.508558,84.529007 75.273324,84.558699 74.999483,84.608439 74.900016,84.639549 74.263668,84.838567 71.498128,85.038105 69.348623,85.040084 65.902365,85.043272 63.987972,84.822497 60.643657,84.036219 56.715378,83.112644 52.932249,81.141071 50.570413,78.786553 50.170578,78.387967 49.810896,78.094386 49.771117,78.134162 49.731339,78.173937 49.765893,78.400859 49.847904,78.638423 50.930064,81.773244 52.508046,84.255444 54.803655,86.43392 55.676401,87.262134 57.542986,88.753151 57.707078,88.753151 57.749569,88.753151 57.866721,88.824737 57.967412,88.912234 58.252946,89.160351 60.07996,90.116186 61.0158,90.507065 62.372495,91.073713 63.256154,91.33681 65.282116,91.777287 67.076555,92.167432 70.72313,92.164964 72.589599,91.772335 Z M 55.00433,71.418064 C 56.900569,71.016319 58.027846,70.397078 59.426147,68.989061 60.96404,67.440478 61.82735,65.83748 62.396578,63.473547 62.602429,62.61867 62.601619,59.336999 62.395347,58.48721 62.19501,57.661875 61.825886,56.500906 61.7007,56.302417 61.625912,56.18384 61.363887,56.323514 60.59613,56.891227 60.042539,57.300566 58.971261,57.958474 58.215504,58.353252 L 56.841406,59.071023 57.204551,59.735795 C 57.549052,60.36644 57.56771,60.466048 57.568011,61.676147 57.568315,62.879811 57.547882,62.990942 57.205559,63.64749 56.855497,64.31888 55.874293,65.374503 55.329095,65.666295 54.814993,65.941436 53.967189,66.138166 53.290292,66.139405 50.812947,66.143943 48.79694,64.010668 48.950548,61.547206 L 48.989528,60.922079 47.366066,60.92096 C 46.473163,60.92035 45.538645,60.886151 45.289358,60.844976 L 44.83611,60.770122 44.916377,61.912003 C 45.037185,63.630651 45.462784,65.15214 46.205029,66.518873 47.629709,69.142206 49.689948,70.792056 52.23645,71.348856 52.619124,71.432535 52.9844,71.517093 53.048179,71.536771 53.34428,71.628115 54.281282,71.57126 55.00433,71.418064 Z M 84.486035,71.363857 C 85.003024,71.239903 85.655307,71.048989 85.935552,70.939586 86.592152,70.683283 87.855055,69.875358 88.475952,69.314422 89.769973,68.145347 91.109102,65.80436 91.551804,63.937393 91.722531,63.217404 92.014469,60.93736 91.942364,60.88712 91.916466,60.869082 90.963067,60.874908 89.823694,60.900083 L 87.752107,60.945845 87.816784,61.344401 C 87.908832,61.911624 87.680278,63.087453 87.350174,63.744921 86.301402,65.833782 83.820217,66.707167 81.672686,65.743407 79.465176,64.752744 78.468822,61.903688 79.566928,59.722054 79.754765,59.348873 79.89199,59.029497 79.871869,59.012338 79.851747,58.995169 79.59581,58.876642 79.303123,58.74894 78.537878,58.415053 76.704317,57.312079 75.892596,56.697335 75.509921,56.407533 75.16503,56.169858 75.126168,56.169188 75.026792,56.16748 74.565113,57.587401 74.372502,58.48716 74.154463,59.505686 74.160427,62.362777 74.382793,63.415572 74.929854,66.005637 76.152426,68.111388 78.005837,69.655862 78.810514,70.326412 80.49967,71.158633 81.458743,71.357051 81.84142,71.436222 82.206698,71.517093 82.270477,71.536771 82.616,71.643365 83.660149,71.561876 84.486035,71.363857 Z"
       id="path867" />
    <circle
       style="fill:#000000"
       id="path849"
       cx="67.865623"
       cy="72.098953"
       r="42.068748" />
    <path
       id="path839"
       style="fill:#ffffff;stroke:#000000;stroke-width:2.11666;stroke-miterlimit:4;stroke-dasharray:none;stroke-opacity:1"
       d="M 61.18283,50.016262 C 62.273704,54.087456 55.835047,59.35 46.801688,61.770481 37.768328,64.190962 6.0540453,72.750504 6.0540453,72.750504 6.0540453,72.750504 33.817928,49.447862 42.851286,47.027381 51.884645,44.6069 60.091956,45.945067 61.18283,50.016262 Z"
       sodipodi:nodetypes="sscss" />
    <path
       id="path842"
       style="fill:#ffffff;stroke:#000000;stroke-width:2.11666;stroke-miterlimit:4;stroke-dasharray:none;stroke-opacity:1"
       d="M 72.080622,49.955236 C 71.357782,54.107601 78.240789,58.773954 87.454251,60.377827 96.667725,61.981702 129.0095,67.73333 129.0095,67.73333 129.0095,67.73333 99.285363,46.944659 90.071888,45.340785 80.858427,43.736912 72.803463,45.802873 72.080622,49.955236 Z"
       sodipodi:nodetypes="ssccs" />
    <path
       id="path844"
       style="fill:#ffffff;stroke:#000000;stroke-width:2.11667;stroke-miterlimit:4;stroke-dasharray:none;stroke-opacity:1"
       d="M 88.305783,87.894401 C 88.305786,98.444553 67.255725,128.96402 67.255725,128.96402 67.255725,128.96402 47.160875,98.444553 47.160877,87.894401 47.160877,77.344251 56.371479,68.791665 67.733331,68.791665 79.095183,68.791665 88.305783,77.344251 88.305783,87.894401 Z"
       sodipodi:nodetypes="scsss" />
  </g>
</svg>
